<?xml version="1.0" encoding="utf-8"?>
<!-- Generator: Adobe Illustrator 24.1.2, SVG Export Plug-In . SVG Version: 6.00 Build 0)  -->
<svg version="1.1" xmlns="http://www.w3.org/2000/svg" xmlns:xlink="http://www.w3.org/1999/xlink" x="0px" y="0px"
	 viewBox="0 0 1000 621.3" style="enable-background:new 0 0 1000 621.3;" xml:space="preserve">
<style type="text/css">
	.st0{fill:#D4E4FC;}
	.st1{fill:#B3CFFF;}
	.st2{fill:#E6EDFC;}
	.st3{fill:#99B4F2;}
	.st4{fill:#93ABEA;}
	.st5{fill:#5970BB;}
	.st6{fill:#FFFFFF;}
	.st7{fill:#4A5DA9;}
	.st8{fill:#C7DEFF;}
	.st9{fill:#F5F9FF;}
	.st10{opacity:0.2;fill:#FFFFFF;}
	.st11{fill:#CC6723;}
	.st12{fill:#4E2428;}
	.st13{fill:#FC9780;}
	.st14{fill:#BDEBF2;}
	.st15{fill:#3E51AD;}
	.st16{fill:#1C31F4;}
	.st17{fill:#0F2FB5;}
	.st18{opacity:0.5;fill:#FFFFFF;}
	.st19{fill:#4D1D2A;}
	.st20{fill:#9C431A;}
	.st21{fill:#38060F;}
	.st22{fill:none;stroke:#EA746D;stroke-width:0.912;stroke-miterlimit:10;}
	.st23{fill:#461E29;}
	.st24{fill:#BD4D12;}
	.st25{fill:#493958;}
	.st26{fill:#391A22;}
	.st27{fill:none;stroke:#756A6F;stroke-width:1.3681;stroke-linecap:round;stroke-miterlimit:10;}
	.st28{fill:#36C1BD;}
	.st29{fill:#279B95;}
	.st30{fill:#B85A19;}
	.st31{fill:#EA746D;}
	.st32{fill:#580B13;}
	.st33{fill:none;stroke:#FC8A3D;stroke-width:1.8241;stroke-linecap:round;stroke-miterlimit:10;}
	.st34{fill:#F9F9FA;}
	.st35{fill:#02163A;}
	.st36{fill:#07163E;}
	.st37{fill:#011739;}
	.st38{fill:none;stroke:#FFFFFF;stroke-width:0.434;stroke-miterlimit:10;}
	.st39{fill:#0144CC;}
	.st40{fill:#0442CE;}
	.st41{fill:#033482;}
	.st42{fill:#04297B;}
	.st43{fill:#33A03B;}
	.st44{fill:none;stroke:#2A7F2E;stroke-width:1.8518;stroke-linecap:round;stroke-miterlimit:10;}
	.st45{fill:#3274CB;}
	.st46{fill:#6596D8;}
</style>
<g id="Layer_2">
	<rect x="61.1" y="57.3" class="st0" width="882" height="462.4"/>
</g>
<g id="Layer_1">
	<g>
		<rect x="61.1" y="506.7" class="st1" width="882" height="13"/>
		<polygon class="st2" points="784.7,346.4 783.3,349.6 782.4,351.9 587.6,391.8 585.3,381.8 583.1,372 		"/>
		<polygon class="st3" points="783.3,349.6 782.4,351.9 587.6,391.8 585.3,381.8 		"/>
		<polygon class="st2" points="61.1,347.9 61.1,351.1 62.4,353.4 237.2,393.3 239.5,383.3 241.7,373.5 		"/>
		<polygon class="st4" points="61.1,351.1 61.1,353.4 236.9,393.3 239.1,383.3 		"/>
		<polygon class="st2" points="943.1,404.6 939.8,425.6 938,437.4 603.5,506.7 597.3,467.6 592.6,437.4 		"/>
		<polygon class="st2" points="232.8,435.3 230.3,464.2 226.5,506.7 61.1,470.1 61.1,421 		"/>
		<polygon class="st5" points="939.8,425.6 938,437.4 603.5,506.7 597.3,467.6 		"/>
		<polygon class="st5" points="230.3,464.2 226.5,506.7 61.1,470.1 61.1,441.8 		"/>
		<path class="st6" d="M949.1,506.7c-0.8-48.3-42.2-87.3-93.3-87.3c-51.1,0-92.5,39-93.3,87.3H949.1z"/>
		<path class="st7" d="M930.5,506.7c-0.8-38.6-33.9-69.6-74.7-69.6c-40.8,0-73.9,31-74.7,69.6H930.5z"/>
		<polygon class="st2" points="424.2,265.1 405.1,265.1 412.9,79.3 418.1,79.3 		"/>
		<polygon class="st8" points="424.2,265.1 414.6,265.1 416,79.3 418.1,79.3 		"/>
		<path class="st9" d="M414.3,259.2c-65.5,0-214.5,49.7-187.8,247.5h377C603.5,506.7,639.6,259.2,414.3,259.2z"/>
		<polygon class="st5" points="354.8,354.6 338,393.2 412.9,393.2 412.9,354.6 		"/>
		<polygon class="st5" points="418.1,354.6 418.1,393.2 493.1,393.2 476.2,354.5 		"/>
		<path class="st5" d="M481.4,354.6l16.8,38.6c0,0,28.5,5.2,35.8,11S509.9,353,509.9,353L481.4,354.6z"/>
		<polygon class="st5" points="515.1,353 539.1,404.6 550.1,396 529.5,353 		"/>
		<path class="st5" d="M296.3,402.9c0,0,29.6-10.7,37.1-9.6l16.9-38.7L320,353L296.3,402.9z"/>
		<polygon class="st5" points="290.1,404.6 315.6,353 300.8,353 280,395.8 		"/>
		<rect x="206.2" y="57.3" class="st1" width="8.3" height="458.8"/>
		<rect x="495.8" y="57.3" class="st1" width="8.3" height="458.8"/>
		<rect x="783.8" y="57.3" class="st1" width="8.3" height="458.8"/>
		<rect x="61.1" y="299.7" class="st1" width="881.9" height="10"/>
		<polygon class="st10" points="592.6,57.3 315.6,506.7 366.6,506.7 641,57.3 		"/>
		<polygon class="st10" points="369.1,57.3 89.8,506.7 109.6,506.7 388.9,57.3 		"/>
	</g>
	<g>
		<path class="st11" d="M555.9,192.7c0,0-31.6,17.7-19.5,50.4s0,0,0,0L555.9,192.7"/>
		<path class="st12" d="M690.1,426.4c0,0-6.9-12.5,9.6-16.9c0,0,8.6,1,11.2,5.9l-6.7,2.2c0,0-3.4-7.6-11.6,0
			c-0.7,1.1-0.8,5.8,0.6,6.7L690.1,426.4z"/>
		<path class="st13" d="M673.3,556.5c0,0,0.6-7-1.8-12.5c-2.4-5.5,18.6-9.7,18.6-9.7s1.9,6.3,5.3,10c3.4,3.7-4.5,15.4-4.5,15.4
			L673.3,556.5z"/>
		<path class="st13" d="M517.8,548.8c0,0,0.2,10.7-2.8,13.1c-3.1,2.3,14.9,12.2,14.9,12.2l9.6-8.7c0,0-1.2-11.8,0-13.1
			C540.7,551.1,517.8,548.8,517.8,548.8z"/>
		<path class="st14" d="M545.7,587.2c-3.2,0.9-63.1,0.8-63.1,0.8s-11.5,0.9-9.5-9.3c0.1-0.3,0.1-0.5,0.2-0.8
			c1.8-4.9,10.9-6.8,16.6-8c0.8-0.2,1.5-0.3,2.2-0.4c5.6-1.2,11.2-6,13.2-9.4c2-3.4,11-4.8,14.6-0.8c3.6,4,5,10.8,9.4,9.7
			c4.4-1.2,10.9-5.3,12.7-5.2c1.9,0.1,3.4-0.4,3,5.6c-0.2,2.9-0.3,5.3-0.3,7c0,1.8,0.1,3,0.4,3.7
			C545.7,581.4,548.9,586.3,545.7,587.2z"/>
		<path class="st15" d="M519.9,559.3c-4.9,12.7-20.9,13-24.1,12c-1.4-0.4-3.7-0.9-5.9-1.4c0.8-0.2,1.5-0.3,2.2-0.4
			c5.6-1.2,11.2-6,13.2-9.4C507.3,556.7,516.3,555.3,519.9,559.3z"/>
		<path class="st15" d="M545.7,587.2c-3.2,0.9-63.1,0.8-63.1,0.8s-11.5,0.9-9.5-9.3c0.1-0.3,0.1-0.5,0.2-0.8
			c1.4,1.8,5.7,6.5,12.7,6.5c8.6,0,22.5-3.2,27.3-2.4c4.8,0.8,12.8,2.9,15.5,2.4c2.8-0.5,7.7-7.3,15.8-8.1c0,1.8,0.1,3,0.4,3.7
			C545.7,581.4,548.9,586.3,545.7,587.2z"/>
		<path class="st14" d="M710.4,565.9c-9,7.7-25.6,19.3-25.6,19.3s-3.2,2.6-9.4,2.6s-29.1,0-29.1,0l-0.9-5.1v-0.3
			c0.1-5.1,3.8-8.6,12.5-10.9c0.8-0.2,1.6-0.4,2.5-0.6c4.8-2.6,6.5-3.9,6.6-7.6c0.1-3.7-0.1-7.6,7.3-8.7c0,0,1,0.3,2.5,0.7
			c3.4,0.9,9.4,2.2,11.4,1.4c2.8-1.1,4.2-1.9,6.5-10.1c2.3-8.2,7.1-1.3,7.1-1.3s1.8,3.3,3.4,5.2c0.5,0.5,0.9,1,1.2,1.1
			C707.8,552.2,719.4,558.3,710.4,565.9z"/>
		<path class="st15" d="M710.4,565.9c-9,7.7-25.6,19.3-25.6,19.3s-3.2,2.6-9.4,2.6s-29.1,0-29.1,0l-0.9-5.1v-0.3c1,0,2.3,0,3.2,0.1
			c2.2,0.3,13.7,2.5,20,1.7c6.3-0.8,13-5,16-7.2c3-2.2,8.9-5.2,10.7-6.1c1.9-0.9,6.2-5.7,7-9.2c0.7-2.7,1.6-8.3,2.7-11.3
			c0.5,0.5,0.9,1,1.2,1.1C707.8,552.2,719.4,558.3,710.4,565.9z"/>
		<path class="st15" d="M670,569.6c-4.6,3.5-9.5,2.8-12.2,2c0.8-0.2,1.6-0.4,2.5-0.6c4.8-2.6,6.5-3.9,6.6-7.6
			c0.1-3.7-0.1-7.6,7.3-8.7c0,0,1,0.3,2.5,0.7c-0.8,1-1.6,2.2-1.8,3.3C674.5,561,676.7,564.5,670,569.6z"/>
		<path class="st16" d="M515.7,299l-4.5,0.5l-22.3,2.6l-12-12.8c0,0-0.1-0.2-0.3-0.4c-0.3-0.5-0.6-1.6,0.3-2.4
			c1.3-1.2,13.9-6.6,13.9-6.6s2-1.7,5.6,1.8C500,285.3,515.7,299,515.7,299z"/>
		<path class="st17" d="M511.2,299.5l-22.3,2.6l-12-12.8c0,0-0.1-0.2-0.3-0.4l14.2-6.5c0,0,2.7-1.2,5.2,1.7
			C498.1,286.5,508,296.3,511.2,299.5z"/>
		
			<ellipse transform="matrix(0.827 -0.5621 0.5621 0.827 -79.3189 326.4666)" class="st18" cx="490.9" cy="292.1" rx="1.9" ry="2.6"/>
		<path class="st12" d="M745.5,573.9c-1.3,0-2.4,0.3-3.5,0.9l-5.9-1.5c0.2,7.5,3.4,9.6,3.4,9.6l0.2-0.4c1.1,1.8,3.3,3,5.8,3
			c3.6,0,6.6-2.6,6.6-5.8C752.1,576.4,749.2,573.9,745.5,573.9z"/>
		<path class="st19" d="M643.3,339.6c0,0-4.2,1.2-4.3,2.4c-0.2,1.2,41.1,96.2,41.1,96.2l3.6-4.6l-37-83.5l-2-5.4
			c0,0,6.7-4.5,13.1-2.7l40.2,86.7l4.7-3.1l-39-84.5c0,0-3.3-6.3-9.2-4.9C648.6,337.6,643.3,339.6,643.3,339.6z"/>
		<path class="st20" d="M803.2,560.4c-1.6,1.2-3.1,2.3-4.4,3.4c-4.7,4-18.7,9.8-21.3,10.9c-0.3,0.1-0.4,0.2-0.4,0.2
			c-36.4,16.2-47.7-7.1-47.7-7.1S680.4,458.4,677.5,446c-2.9-12.4,19.8-25.8,19.8-25.8c0.9-0.9,2.3-1.8,4.1-2.6
			c5.1-2.5,13.1-5,21.6-7c3.2-0.8,6.5-1.5,9.6-2.1c3.1-0.6,6.2-1.1,9-1.6c15.7-2.4,34,38.7,45,60.9c11,22.2,24,67.4,25.4,77.3
			C813,552.5,807.9,556.9,803.2,560.4z"/>
		<path class="st21" d="M777.5,574.7c-0.3,0.1-0.4,0.2-0.4,0.2c-36.4,16.2-47.7-7.1-47.7-7.1S680.4,458.4,677.5,446
			c-2.9-12.4,19.8-25.8,19.8-25.8c0.9-0.9,2.3-1.8,4.1-2.6c2.2,13.5,24.1,52.7,29.7,63.3c5.9,11.2,21.5,47.1,26.8,59.7
			C761.9,550.1,772.7,567.2,777.5,574.7z"/>
		<path class="st22" d="M798.8,563.8c1.3-1.1,2.8-2.2,4.4-3.4"/>
		<path class="st23" d="M803.2,560.4c-1.6,1.2-3.1,2.3-4.4,3.4c0,0-8.3-33.9-13.1-46.6c-4.9-12.7-29.4-65.9-33.6-72.4
			c-3.7-5.8-16.6-28.5-29.2-34.3c3.2-0.8,6.5-1.5,9.6-2.1c4.5,2.8,12.9,10.3,23.8,29.8c16.5,29.6,39.9,82.3,43.7,102.1
			C801.8,549.3,802.7,555.9,803.2,560.4z"/>
		<path class="st12" d="M766.5,571c-0.5,0-1,0-1.4,0.1l-1.1-2.2c0,0-6.1-3.1-8.7,2.9l2.5,9.1l0.1-0.1c0.5,4.3,4.2,7.7,8.7,7.7
			c4.8,0,8.7-3.9,8.7-8.7S771.3,571,766.5,571z"/>
		<circle class="st24" cx="768.5" cy="579.5" r="4"/>
		<path class="st13" d="M631.4,328.8c0,0,2.8,3.6,5.6,3.7s7.7,1.3,9.1,5.8l-3.6,1c0,0-1.7-1.1-2.6-1.6c-0.9-0.5,2.1,9.5,8,5.9
			c6-3.6,6.3,0.8,6.3,0.8s-4,7.8-7.1,8c-3.1,0.2-15.2,0.5-15.3,0c-0.1-0.5-3.8-19.2-3.8-19.2L631.4,328.8z"/>
		<path class="st25" d="M687.1,538.4c-9.1,5.8-17.5,8.2-17.5,8.2l-78.8-147.9l-2-3.8l-18.1,63.5l-27.1,95.3c0,0-18.4,1.9-25.9-3.1
			c0,0-6.4,0.2-3.5-9.7c2.9-10,13.1-81.5,17.1-107.6c4-26.1,15.1-87.7,16.2-91.7c1.1-4,83.5-10.2,83.5-10.2s0.4,13.5,4.7,31.9
			c4.2,18.4,32.8,115.2,41.6,131.5c8.9,16.4,15.5,33.4,15.5,33.4S696.2,532.6,687.1,538.4z"/>
		<polygon class="st26" points="590.8,398.7 588.8,394.8 570.7,458.3 571.5,412.5 580.8,376.8 		"/>
		<path class="st27" d="M535.7,550.5l45-173.7c0,0-9.9-2.4-10.3-9c-0.4-6.6-3.3-25.4-3.3-25.4"/>
		<path class="st27" d="M600.9,337.6c0,0,6,17.7,21.5,18"/>
		<path class="st27" d="M619.8,337.6c0,0,24.5,79.7,29.7,95.8s40.6,102.7,40.6,102.7"/>
		<path class="st28" d="M633.4,326.8c0.8,13.6-23.7,9.7-34.6,9.9c-10.9,0.1-28.3,5.6-42.8,7.7c-14.5,2.1-11.7-6.9-11.2-8.6
			c0.5-1.7,0-5.6,0-5.6c-0.1-0.1-0.1-0.3-0.2-0.4c-2.4-5.6,3.6-10,4.3-15.7c0-0.4,0-0.8,0-1.3c-0.3-8.3-8-38.2-12.5-69.6
			c-4.8-33.4,17.4-45.9,17.4-45.9l29.7-5.1c20.8-2.1,45.7,32.7,46.3,42.9C630.4,245.2,632.6,313.2,633.4,326.8z"/>
		<path class="st29" d="M570.7,323.7c-12.1,0-20.6,3-26.1,6c-2.4-5.6,3.6-10,4.3-15.7c0-0.4,0-0.8,0-1.3
			c15.4-9.7,42.5-27.5,48.9-37.5c9.1-14.2,22.1-16.4,22.1-16.4C626,328.7,595.4,323.7,570.7,323.7z"/>
		<path class="st29" d="M569.2,296.4c0,0,11.6-37.6,1.5-59.4c-7-15.2,8.2,7.5,11.6,13.5c3.4,6,10.5,39.8,2.3,43.8
			C576.3,298.2,569.2,296.4,569.2,296.4z"/>
		<path class="st30" d="M631.8,302.9c0,0-18.8-15.8-20.2-20.6c-1.5-4.8,2.3-7.1,2.3-7.1l16.9,15.3L631.8,302.9"/>
		<path class="st13" d="M602.6,309.3c-9.5,5.1-26.7,5.7-42.6,4.9c-19-1-36.1-4-36.1-4s-11.6,4.6-16,4.3c-4.4-0.4-9.2,1.7-14.9-7
			c0,0-14.4-6.6-7.9-10.3c0,0,19.2,1.5,22.3,1.3c3.1-0.2,4-2.3,4-2.3s-7.3-7.9-4.7-12.1c0,0,1.1-0.8,2.9,2.3
			c1.8,3.1,6.1,7.1,8.9,7.1c2.7,0,4.4,5,4.4,5s55-6.6,57.1-9.2c2.1-2.6,5.9-5.8,4.5-17.8c-1.3-12-4.1-24.3-4.1-24.3
			s13.3-5.1,25.2-5.7c5.1-0.3,10,0.3,13.4,2.5C619.1,244,623.5,298.1,602.6,309.3z"/>
		<path class="st31" d="M602.6,309.3c-9.5,5.1-26.7,5.7-42.6,4.9c4-0.8,8.7-1.5,14.2-1.8c21.9-1.3,26.3-10.9,31.7-25.4
			c3.9-10.5,1.4-33.5-0.2-45.5c5.1-0.3,10,0.3,13.4,2.5C619.1,244,623.5,298.1,602.6,309.3z"/>
		<path class="st13" d="M587.5,192.5c0,0-20.6,16.9-32.6,22.7l0,0c-3.2,1.5-5.7,2.3-7.1,1.8c-3.5-1.3-2.6-5.6-0.5-10.4
			c2-4.5,5.1-9.4,6.9-12.9c2.9-5.6-1.9-13.4-4.2-16.6c-0.8,0.6-2,1.6-4.1,3.3c-5.8,4.8-6.9-1.4-7.1-2.8c-0.2-1.4-1.9-1-3-1.6
			c-1-0.6-0.1-2.1-0.1-2.1c-2.8,1.1-2.7-2-2.7-2c0.4-2.3-1.3-2.3-1.3-2.3c-5.7,3.6-5.5-3.7-4.9-7.7c0.3-2.3,0.3-3.2-0.3-4.1
			c-0.1-0.1-0.2-0.3-0.3-0.4c-0.4-0.6-1-1.3-1.9-2.4c-2.1-2.8-1.2-11.9-0.9-14.5c0-0.4,0.1-0.7,0.1-0.7c8.5-6,13.1-0.3,13.1-0.3
			s4.8,2.1,10.8,4.8c0.5,0.2,1,0.4,1.5,0.7c0.7,0.3,1.4,0.6,2.1,0.9c3.6,1.6,7.4,3.3,10.6,4.8c0.7,0.3,1.4,0.6,2.1,0.9
			c0.5,0.2,1,0.5,1.5,0.7c0.2,0.1,0.4,0.2,0.6,0.3c2.8,1.3,2.7,2.3,5.2,2.7c0.1,0.3,0.6,0.8,1.2,1.4c-0.3,0.1-0.7,0.2-1.3,0.3
			c-0.3,5.4,0.9,10.6,2.9,15.3C578.4,184,587.5,192.5,587.5,192.5z"/>
		<path class="st11" d="M645.8,262.2l-3.5-40.6l4.3,1.6c0.5-34.2-38.4-43.6-38.4-43.6c-7.7-14.6-14-12.6-14-12.6
			c-11.9,2.3-12.6,13.5-12.6,13.5l-3.1,2.1l5,6.6c-39,26.3-3.1,58.1-3.1,58.1s-1.3-4-6.9-19.9c-5.6-16,9.6-26.9,13.7-28.4
			c16.7-4.2,27.3,14,33.9,36.9c9.5,32.5,11,74.4,11,74.4c13-7.7,16.1-31.8,16.8-39.6C649.8,262.8,645.8,262.2,645.8,262.2z
			 M586.3,178.8c0,0,1.7-7.8,8.3-9.6c1.2,0.5,5.6,3.4,6.3,10L586.3,178.8z"/>
		<path class="st32" d="M649.1,270.6c-0.7,7.8-3.9,31.9-16.8,39.6c0,0-1.5-41.9-11-74.4c4.3,7.2,10.3,18.6,12.8,29.5
			c4.1,17.8,7.8,13.3,11.8-3.1C645.8,262.2,649.8,262.8,649.1,270.6z"/>
		<path class="st32" d="M613.6,188.9c0,0,24.5,6.7,28.7,32.7h1.7C643.9,221.6,641.9,190.6,613.6,188.9z"/>
		<path class="st33" d="M615.4,192.7c20.9,14.5,24.2,35.4,23.8,60.3"/>
		<path class="st31" d="M557.3,197.5c-2.7,2.8-6.9,6.5-10,9.1c2-4.5,5.1-9.4,6.9-12.9c2.9-5.6-1.9-13.4-4.2-16.6
			c0,0,6.9-6.2,8.2-11.4c1.3-5.2,2-2,2-2s-3,16.4-1.5,20.8C560.3,188.8,561.9,192.7,557.3,197.5z"/>
		<g>
			<polygon class="st34" points="529.6,158.5 532.1,155.8 528,157.3 			"/>
			<path class="st35" d="M524.7,154.9c0.2,0.4,0.9,0.8,1.4-0.9c0.5-1.8,6.6-1.5,6.8-1.4c0.2,0.1-2-2.7-7.3-0.6
				C524.6,152.4,523.9,153,524.7,154.9z"/>
			<path class="st35" d="M527.6,156.4c0,0-1.4,1.4-2.3,1.1c-1-0.3,0.2,2,7.2-2.2L527.6,156.4z"/>
			<ellipse transform="matrix(0.8358 -0.549 0.549 0.8358 0.37 316.3195)" class="st36" cx="529" cy="157.5" rx="0.8" ry="1"/>
			<path class="st37" d="M572.3,156.7c0,0-0.1,0-0.3,0.1c-0.3,0.1-0.7,0.2-1.3,0.3c-2,0.4-5.6,0.7-7.8-1.1c0,0-0.1,0-0.1-0.1
				c-0.4-0.3-0.7-0.7-1-1.1c-0.1-0.2-0.2-0.4-0.4-0.6l-2.7,0.2l-4.9,0.3l-3.7,0.2l-1.9,0.1c0,0,0,0-0.1,0.1c-0.4,0.3-1.8,1-3-0.6
				c-1.4-1.8-4.3-3.5-5.6-3.3c-1.3,0.2-3.4-0.5-4.4-5c-1-4.5-2.1-12-11.7-5.6c0,0,0,0,0,0c0,0-13.5-7.1-0.6-16.2
				c3.9-2.7,8.8-5.2,14.2-6.8c3.7-1.1,7.7-1.9,11.5-2c9-0.3,17.6,2.9,22.3,12c0,0-6.5-4.8-9.7-4.1c0,0,12.5,4.4,10.7,17.1
				C570,153.3,572.3,156.7,572.3,156.7z"/>
			<path class="st38" d="M548.9,136.2c0,0,1.3,3.9,2,4.5"/>
			<path class="st38" d="M552.5,134.7c0,0,1.4,3.2,1.7,4.8"/>
			<path class="st39" d="M535.6,116.8c0,0,6,2.2,10.4,15.2l-0.7,0.3c0,0-0.3,0.1-0.1,0.7c0.2,0.6,1.6,4,1.6,4s0.2,0.6,1,0.3
				c0.8-0.3,6.8-2.5,6.8-2.5s0.5-0.1,0.2-0.8c-0.3-0.8-1.4-3.8-1.4-3.8s-0.2-0.8-0.9-0.4c0,0-2-11.3-4.9-15.7
				C547.6,114.1,540.9,112.6,535.6,116.8z"/>
			<circle class="st40" cx="555.9" cy="149.1" r="9.8"/>
			<path class="st41" d="M535.1,118.2c0,0,0.2-0.9,0.3-1.2c0.3-0.6,1.5,0.6,1.5,0.6L535.1,118.2z"/>
			<g>
				<path class="st42" d="M555.9,157.7c-1.8,0-3.5-0.5-4.9-1.6c-1.9-1.3-3.1-3.3-3.5-5.6l0,0c-0.4-2.3,0.1-4.5,1.4-6.4
					c1.3-1.9,3.3-3.1,5.6-3.5c2.3-0.4,4.5,0.1,6.4,1.4c1.9,1.3,3.1,3.3,3.5,5.6c0.4,2.3-0.1,4.5-1.4,6.4c-1.3,1.9-3.3,3.1-5.6,3.5
					C556.9,157.6,556.4,157.7,555.9,157.7z M555.9,141.4c-0.4,0-0.9,0-1.3,0.1c-2,0.4-3.8,1.5-5,3.2s-1.6,3.7-1.3,5.7l0,0
					c0.7,4.2,4.7,7,8.9,6.2c4.2-0.7,7-4.7,6.2-8.9c-0.4-2-1.5-3.8-3.2-5C559,141.9,557.5,141.4,555.9,141.4z"/>
			</g>
			<g>
				<path class="st6" d="M555.9,155.2c-2.9,0-5.5-2.1-6-5.1l0,0c-0.6-3.3,1.6-6.5,5-7.1c1.6-0.3,3.2,0.1,4.6,1s2.2,2.3,2.5,3.9
					c0.3,1.6-0.1,3.2-1,4.6c-0.9,1.3-2.3,2.2-3.9,2.5C556.6,155.2,556.2,155.2,555.9,155.2z M550.3,150.1c0.5,3.1,3.5,5.2,6.6,4.6
					c1.5-0.3,2.8-1.1,3.7-2.3c0.9-1.2,1.2-2.7,0.9-4.2c-0.3-1.5-1.1-2.8-2.3-3.7c-1.2-0.9-2.7-1.2-4.2-0.9
					C551.8,144,549.8,147,550.3,150.1L550.3,150.1z"/>
			</g>
		</g>
	</g>
</g>
<g id="Layer_3">
	<path class="st43" d="M256.2,317.6c-25.3,8.5-44.8-2.1-46.5-33.1h19.6l-19.6-6.9c0,0,3.8-44.8-17.9-56.8c0,0,28.3-11,55.1,10.3
		l-4.1,13.4l8.6-10C251.4,234.6,311.1,299.3,256.2,317.6z"/>
	<path class="st43" d="M297.6,392.4c-21.4-16.5-11-40,13.4-51.3l7.9,7.2l-1.4-11c0,0,23.1-8.3,44.1-3.8c-3.1,8.3-5.5,33.8-21.7,50
		l-15.8-4.1l12,10C336.2,389.3,311.4,403,297.6,392.4z"/>
	<path class="st43" d="M248,403.7c-5.6,17.4-23.4,13.1-36.2-1.7c-12.7-14.8-26.9-17.6-26.9-17.6s24.5-8.3,31.5-3.1l1.6,4.5l3.1-6.2
		C221.1,379.6,254.5,383.4,248,403.7z"/>
	<path class="st44" d="M216.9,229.1c0,0,39.5,46,44.9,103.1c5.4,57.1,3.9,121,3.9,121"/>
	<path class="st44" d="M270.6,453.1c0,0,21.9-81.6,72.8-110.1"/>
	<path class="st44" d="M201.3,385c0,0,57.4,11.9,59.3,68.1"/>
	<polygon class="st45" points="229.2,484.4 239.7,547.9 292.3,547.9 301.8,484.4 	"/>
	<path class="st46" d="M301.7,489.6H228c-4.1,0-7.5-3.3-7.5-7.5v-20.8c0-4.1,3.3-7.5,7.5-7.5h73.7c4.1,0,7.5,3.3,7.5,7.5v20.8
		C309.2,486.3,305.8,489.6,301.7,489.6z"/>
</g>
</svg>
